<?xml version="1.0" encoding="UTF-8"?>
<!DOCTYPE svg PUBLIC "-//W3C//DTD SVG 1.1//EN" "http://www.w3.org/Graphics/SVG/1.1/DTD/svg11.dtd">
<!-- Creator: CorelDRAW 2020 (64-Bit) -->
<svg xmlns="http://www.w3.org/2000/svg" xml:space="preserve" width="2067px" height="591px" version="1.1" shape-rendering="geometricPrecision" text-rendering="geometricPrecision" image-rendering="optimizeQuality" fill-rule="evenodd" clip-rule="evenodd"
viewBox="0 0 2067 590.57"
 xmlns:xlink="http://www.w3.org/1999/xlink"
 xmlns:xodm="http://www.corel.com/coreldraw/odm/2003">
 <g id="Capa_x0020_1">
  <metadata id="CorelCorpID_0Corel-Layer"/>
  <path id="Logo"  d="M572.02 144.48c28.41,2.32 30.1,5.08 34.89,23.43 11.45,-19 -3.72,-9.73 24.1,-24.33 0.71,-0.37 1.78,-0.95 2.61,-1.48 -22.63,-3.46 -16.39,-5.07 -25.62,-17.52 -13.95,16.65 -3.2,14.11 -35.98,19.9zm-469.24 -82.24c0.82,0.37 2.1,0.18 2.57,1.01 0.46,0.82 1.94,0.75 2.58,0.95 0.63,0.19 1.84,0.59 2.61,0.83l13.61 4.63c6.2,3.91 7.56,8.78 9.1,14.63l10.34 -12.89c5.27,-4.45 9.55,-3.18 19.86,-10.03 -24.83,-3.13 -20.48,-9.91 -28.61,-24.04 -4.3,17.35 -6.69,21.54 -32.06,24.91zm141.57 -12.7c14.22,2.84 12.22,-5.98 22.83,-16.95 23.7,-1.64 40.68,6.86 28.18,20.68 -14.3,15.82 -21,-10.27 -26.49,25.52 -26.24,12.87 -60.68,14.49 -47.74,24.77 4.97,2.86 -7.99,6.27 13.88,1.02 36.27,-8.72 24.77,-21.52 68.74,-6.08 7.08,2.49 23.41,10.13 29.8,5.61 9.3,-12.96 -29.47,-15.26 -42.06,-22.85 -20.13,-12.14 17.57,-10.82 22.78,-31.05 11.85,-45.97 -92.91,-31.59 -69.92,-0.67zm113.42 401c134.65,-8.48 132.13,-149.49 31.99,-171.34 -1.07,17.18 62.02,28.41 52.58,93.5 -2.74,18.93 -14.21,35.65 -27.99,47.63 -7.07,6.14 -13.25,10.34 -23.49,16.12 -4.21,2.37 -8.25,4.32 -14.04,6.32l-19.05 7.77zm5.76 -38.36c-44.28,-10.77 -92.33,-0.61 -161.6,-62.08 -26.88,-23.86 -68.97,-84.82 -72.65,-122.98 -22.13,89.11 84.03,189.57 234.25,185.06zm178.14 126.12c73.09,-1.01 93.65,-51.92 109.46,-98.63 12.53,-37.02 31.92,-117.43 28.82,-156.01l-97.58 -74.64c10.12,27.09 70.84,72.49 52.43,175.89 -5.52,30.97 -15.79,60.51 -28.23,88.94 -13.95,31.88 -27.67,50.84 -64.9,64.45zm-130.68 -309.04c-7.71,14.18 -15.69,27.42 -19.74,43.95 22.03,4.18 43.68,18.42 55.51,31.11 44.81,48.09 25.91,112.98 -39.06,141.37 -49.56,21.66 -114.63,9.72 -144.6,-13.19 -29.63,-22.65 -20.05,-31.38 -38.87,-40.19 -13.15,-6.15 -16.56,-8.27 -27.88,-15.36 -9.18,-5.74 -14.79,-11.87 -25.21,-15.87 1.18,33.59 10.31,161.65 44.03,175.62 43.35,17.96 206.1,23.78 260.45,13.08 23.05,-4.54 34.46,-9.02 43.47,-23.22 7.23,-11.38 12.78,-25.9 16.74,-39.09 8.75,-29.06 14.18,-58.52 18.34,-88.71 5.68,-41.13 26.22,-157.94 4.67,-186.76l-147.85 17.26zm-377.98 -100.54c0.32,15.45 22.16,57.59 28.76,75.7l71.62 -3.31 10.58 34.4c11.96,37.28 30.8,73.67 60.66,103.49 34.55,34.52 92.65,66.95 185.77,64.87 -3.68,-17.29 -12.59,-32.07 -16.76,-52.12 -10.31,-49.6 1.72,-122.02 46.2,-154.13l70.48 7.45c8.63,-13.87 27.78,-59.87 31.52,-76.2l-179.69 -31.9c-14.79,19.94 -21.06,36.33 -63.48,37.25 -39.79,0.87 -56.04,-16.12 -66.22,-36.92l-179.44 31.42z"/>
  <path id="LAVANDERIA"  fill-rule="nonzero" d="M762.6 87.71l24.78 0 0 126.97 19.61 0 0 38.22 -44.39 0 0 -165.19zm137.47 165.19l-25.75 0 -4.16 -27.58 -26.14 0 -4.35 27.58 -25.26 0 28.94 -165.19 27.79 0 28.93 165.19zm-34.65 -57.27c-3.71,-24.58 -6.47,-47.98 -8.34,-70.2l-0.31 0c-1.98,22.85 -4.71,46.25 -8.26,70.2l16.91 0zm31.08 -107.92l25.81 0 13.51 72.99c2.56,14.44 4.29,26.78 5.22,37l0.33 0c0.81,-9 1.73,-16.35 2.71,-22.13l15.04 -87.86 26.48 0 -32.79 165.19 -22.96 0 -33.35 -165.19zm172.55 165.19l-25.75 0 -4.16 -27.58 -26.14 0 -4.36 27.58 -25.25 0 28.94 -165.19 27.79 0 28.93 165.19zm-34.65 -57.27c-3.71,-24.58 -6.47,-47.98 -8.34,-70.2l-0.31 0c-1.98,22.85 -4.72,46.25 -8.26,70.2l16.91 0zm47.18 -107.92l25 0 31.48 95.29 -0.9 -17.82 0 -77.47 24.78 0 0 165.19 -25.42 0 -30.83 -93.81 0.67 20.57 0 73.24 -24.78 0 0 -165.19zm103.83 0l23.13 0c16.01,0 28.21,6.89 36.55,20.74 8.32,13.81 12.5,34 12.5,60.57 0,20.1 -2.06,36.37 -6.17,48.74 -4.12,12.38 -9.87,21.33 -17.24,26.86 -7.39,5.54 -15.57,8.28 -24.5,8.28l-24.27 0 0 -165.19zm24.77 35.15l0 94.77c7.51,-0.97 12.84,-5.02 15.94,-12.08 3.09,-7.05 4.66,-18.66 4.66,-34.8 0,-9.59 -0.56,-17.7 -1.65,-24.33 -1.09,-6.63 -2.71,-11.74 -4.85,-15.33 -2.15,-3.59 -4.25,-5.78 -6.31,-6.63 -2.04,-0.85 -4.63,-1.35 -7.79,-1.6zm64.1 -35.15l50.11 0 0 35.15 -25.34 0 0 30.45 21.99 0 0 34.25 -21.99 0 0 30.07 25.51 0 0 35.27 -50.28 0 0 -165.19zm69.81 0l28.85 0c11.66,0 20.87,4.52 27.62,13.6 6.78,9.09 10.16,21.42 10.16,37 0,8.03 -1.28,15.76 -3.85,23.19 -2.57,7.48 -6.31,13.1 -11.19,16.9l19.78 74.5 -26.17 0 -20.03 -75.22 -0.39 0 0 75.22 -24.78 0 0 -165.19zm24.78 31.94l0 39.19c10.93,-0.3 16.43,-6.12 16.43,-17.44 0,-7.65 -1.28,-13.14 -3.82,-16.43 -2.51,-3.3 -6.73,-5.07 -12.61,-5.32zm61.46 -31.94l24.78 0 0 165.19 -24.78 0 0 -165.19zm125.32 165.19l-25.76 0 -4.16 -27.58 -26.14 0 -4.35 27.58 -25.25 0 28.93 -165.19 27.79 0 28.94 165.19zm-34.66 -57.27c-3.71,-24.58 -6.47,-47.98 -8.34,-70.2l-0.31 0c-1.98,22.85 -4.71,46.25 -8.26,70.2l16.91 0z"/>
  <path id="NAME"  fill-rule="nonzero" d="M763.82 308.14l72.88 0 0 44.33 -21.06 0 0 149.79 -30.97 0 0 -149.79 -20.85 0 0 -44.33zm93.77 -5.65l24.77 0 0 19.01c0,26.4 -5.02,46.1 -15.1,59.21l-8.47 -13.7c5.16,-8.79 8.19,-18.42 9.05,-28.79l-10.25 0 0 -35.73zm148.16 199.77l-31.76 0 -5.12 -32.41 -32.25 0 -5.36 32.41 -31.14 0 35.68 -194.12 34.27 0 35.68 194.12zm-42.73 -67.3c-4.58,-28.89 -7.99,-56.39 -10.29,-82.49l-0.38 0c-2.44,26.85 -5.82,54.34 -10.19,82.49l20.86 0zm137.5 42.58l13 23.58 -17.34 18.46 -11.08 -20.25c-6.4,5.16 -13.73,7.74 -22.09,7.74 -16.24,0 -28.66,-9.03 -37.2,-27 -8.53,-17.97 -12.8,-43.92 -12.8,-77.87 0,-31.32 4.3,-55.69 12.87,-73.21 8.57,-17.47 20.51,-26.26 35.82,-26.26 16.35,0 28.84,8.79 37.48,26.36 8.63,17.52 12.93,42.58 12.93,75.14 0,30.92 -3.85,55.39 -11.59,73.31zm-35.48 -15.14l-12.01 -22.08 17.14 -18.47 7.88 14.54c0.93,-6.8 1.41,-17.71 1.41,-32.7 0,-37.92 -5.85,-56.88 -17.55,-56.88 -11.01,0 -16.52,18.66 -16.52,55.98 0,24.03 1.38,40.11 4.17,48.15 2.78,8.04 6.84,12.06 12.14,12.06 0.9,0 2,-0.2 3.34,-0.6zm69.75 36.23l0 -45.21c9.67,8.14 17.82,12.21 24.4,12.21 3.82,0 6.84,-1.54 9.08,-4.62 2.2,-3.03 3.3,-7.09 3.3,-12.11 0,-3.87 -0.89,-7.54 -2.65,-10.92 -1.79,-3.37 -4.85,-7.49 -9.22,-12.36 -10.56,-11.61 -18.2,-22.48 -22.95,-32.5 -4.75,-10.03 -7.09,-21.2 -7.09,-33.51 0,-16.77 3.65,-30.42 10.98,-40.99 7.33,-10.58 16.79,-15.89 28.42,-15.89 8.6,0 17.14,2.68 25.6,8.05l0 43.47c-9.05,-7.19 -16.41,-10.77 -22.05,-10.77 -3.79,0 -6.75,1.34 -8.95,3.97 -2.17,2.68 -3.27,6.36 -3.27,11.02 0,8.14 5.09,17.27 15.21,27.45 6.05,6 12.21,14.49 18.41,25.36 6.22,10.92 9.32,23.58 9.32,37.92 0,16.78 -4.06,30.62 -12.18,41.64 -8.15,11.02 -18.44,16.53 -30.97,16.53 -8.53,0 -17,-2.93 -25.39,-8.74zm184.57 3.63l-31.76 0 -5.13 -32.41 -32.24 0 -5.36 32.41 -31.15 0 35.69 -194.12 34.27 0 35.68 194.12zm-42.73 -67.3c-4.58,-28.89 -7.99,-56.39 -10.29,-82.49l-0.38 0c-2.45,26.85 -5.82,54.34 -10.19,82.49l20.86 0zm58.18 -126.82l30.83 0 38.82 111.98 -1.11 -20.95 0 -91.03 30.56 0 0 194.12 -31.35 0 -38.02 -110.24 0.83 24.17 0 86.07 -30.56 0 0 -194.12zm222.18 194.12l-31.76 0 -5.12 -32.41 -32.24 0 -5.37 32.41 -31.14 0 35.68 -194.12 34.27 0 35.68 194.12zm-42.73 -67.3c-4.58,-28.89 -7.99,-56.39 -10.29,-82.49l-0.38 0c-2.44,26.85 -5.81,54.34 -10.18,82.49l20.85 0zm96.41 -126.82l29.32 0 17.34 117.04 0.42 0 15.72 -117.04 26.6 0 15.93 115.75 0.41 0 16.52 -115.75 30.14 0 -32.24 194.12 -27.63 0 -12.8 -86.81c-1.41,-9.48 -2.58,-18.66 -3.54,-27.5l-0.38 0c-1.69,15.04 -2.89,25.07 -3.65,30.13l-12.7 84.18 -27.21 0 -32.25 -194.12zm257.46 194.12l-31.76 0 -5.13 -32.41 -32.24 0 -5.37 32.41 -31.14 0 35.68 -194.12 34.27 0 35.69 194.12zm-42.74 -67.3c-4.58,-28.89 -7.98,-56.39 -10.29,-82.49l-0.38 0c-2.44,26.85 -5.81,54.34 -10.18,82.49l20.85 0zm58.19 63.67l0 -45.21c9.66,8.14 17.82,12.21 24.39,12.21 3.82,0 6.85,-1.54 9.09,-4.62 2.2,-3.03 3.3,-7.09 3.3,-12.11 0,-3.87 -0.9,-7.54 -2.65,-10.92 -1.79,-3.37 -4.85,-7.49 -9.22,-12.36 -10.57,-11.61 -18.2,-22.48 -22.95,-32.5 -4.75,-10.03 -7.09,-21.2 -7.09,-33.51 0,-16.77 3.65,-30.42 10.97,-40.99 7.33,-10.58 16.8,-15.89 28.43,-15.89 8.6,0 17.13,2.68 25.6,8.05l0 43.47c-9.05,-7.19 -16.42,-10.77 -22.06,-10.77 -3.78,0 -6.74,1.34 -8.94,3.97 -2.17,2.68 -3.27,6.36 -3.27,11.02 0,8.14 5.09,17.27 15.2,27.45 6.06,6 12.22,14.49 18.41,25.36 6.23,10.92 9.33,23.58 9.33,37.92 0,16.78 -4.06,30.62 -12.18,41.64 -8.16,11.02 -18.44,16.53 -30.97,16.53 -8.53,0 -17,-2.93 -25.39,-8.74zm91.52 -190.49l30.56 0 0 194.12 -30.56 0 0 -194.12z"/>
 </g>
</svg>
